<svg width="200" height="200" viewBox="0 0 200 200" fill="none" xmlns="http://www.w3.org/2000/svg">
<rect width="200" height="200" rx="10" fill="#1E1E1E"/>
<path d="M15.3125 129C14.8125 128.375 14.5625 127.562 14.5625 126.562C14.5625 125.75 14.6875 125.219 14.9375 124.969L50.8438 72H30.9688C28.2188 72 26 72.375 24.3125 73.125C22.6875 73.875 21.375 75.0938 20.375 76.7812C19.375 78.4688 18.4688 80.75 17.6562 83.625C17.5938 83.875 17.2812 84 16.7188 84C15.2812 84 14.2812 83.7188 13.7188 83.1562C15.4062 75.2812 16.4375 69.7812 16.8125 66.6562C17.125 66.7188 17.9062 66.8125 19.1562 66.9375C20.4688 67.0625 21.9375 67.1562 23.5625 67.2188C25.1875 67.2812 26.6875 67.3438 28.0625 67.4062C29.5 67.4688 30.5 67.5 31.0625 67.5H41.2812C43.4688 67.5 46.1875 67.4375 49.4375 67.3125C52.75 67.125 56.5938 66.875 60.9688 66.5625C61.1562 66.625 61.3438 67.0312 61.5312 67.7812C61.7812 68.5312 61.9062 69.1562 61.9062 69.6562L26.8438 121.875C26.4062 122.5 26.1875 122.969 26.1875 123.281C26.1875 123.906 26.625 124.219 27.5 124.219H48.6875C53.1875 124.219 56.4688 122.875 58.5312 120.188C59.5938 118.812 60.3438 117.688 60.7812 116.812C61.2188 115.875 61.75 114.562 62.375 112.875C62.5 112.688 62.9375 112.594 63.6875 112.594C64.625 112.594 65.375 112.875 65.9375 113.438C64.9375 116.688 64.0938 119.625 63.4062 122.25C62.7188 124.812 62.1875 127.062 61.8125 129H15.3125ZM113.656 129.375C112.094 129.375 110.031 129.344 107.469 129.281C104.969 129.281 102 129.25 98.5625 129.188C95.125 129.125 92 129.062 89.1875 129C86.375 129 83.875 129 81.6875 129L70.3438 129.281C70.1562 129.094 70.0625 128.594 70.0625 127.781C70.0625 126.969 70.1562 126.562 70.3438 126.562C70.9062 126.562 71.6562 126.469 72.5938 126.281C73.5312 126.031 74.4062 125.75 75.2188 125.438C76.0938 125.125 76.625 124.781 76.8125 124.406C77.25 123.719 77.4688 120.781 77.4688 115.594V80.1562C77.4688 78.3438 77.4062 76.75 77.2812 75.375C77.2188 74 77.0625 72.9062 76.8125 72.0938C76.6875 71.7188 76.1875 71.375 75.3125 71.0625C74.5 70.75 73.5938 70.5 72.5938 70.3125C71.6562 70.125 70.9062 70.0312 70.3438 70.0312C70.0938 70.0312 69.9688 69.6562 69.9688 68.9062C69.9688 68.0938 70.0938 67.5625 70.3438 67.3125C71.9688 67.375 73.6875 67.4375 75.5 67.5C77.375 67.5 79.375 67.5 81.5 67.5C82.9375 67.5 84.875 67.4688 87.3125 67.4062C89.75 67.3438 92.6875 67.25 96.125 67.125C99.625 67 102.656 66.9062 105.219 66.8438C107.844 66.7812 110.031 66.75 111.781 66.75C111.906 67.625 112.094 68.6875 112.344 69.9375C112.594 71.125 112.906 72.4375 113.281 73.875C113.594 75.375 113.844 76.5938 114.031 77.5312C114.281 78.4688 114.438 79.125 114.5 79.5C114.188 79.8125 113.625 79.9688 112.812 79.9688C112 79.9688 111.562 79.75 111.5 79.3125C110.562 75.875 109.25 73.6875 107.562 72.75C105.875 71.75 103.562 71.25 100.625 71.25H94.3438C88.9062 71.25 86.1562 71.6562 86.0938 72.4688C85.9688 73.2188 85.8438 74.25 85.7188 75.5625C85.6562 76.875 85.625 78.4688 85.625 80.3438V95.3438C85.625 95.7188 86.9688 95.9062 89.6562 95.9062H94.625C96.75 95.9062 98.1875 95.9062 98.9375 95.9062C99.6875 95.8438 100.219 95.75 100.531 95.625C100.906 95.5 101.594 95.3125 102.594 95.0625C103.219 94.9375 103.688 94.2188 104 92.9062C104.375 91.5312 104.688 90.4062 104.938 89.5312C105 89.0938 105.469 88.875 106.344 88.875C107.094 88.875 107.625 89.0312 107.938 89.3438V107.062C107.688 107.312 107.188 107.438 106.438 107.438C105.625 107.438 105.125 107.188 104.938 106.688C104.688 105.812 104.469 105.062 104.281 104.438C104.094 103.812 103.938 103.281 103.812 102.844C103.5 101.969 103.25 101.469 103.062 101.344C102.938 101.219 102.688 101.031 102.312 100.781C101.438 100.281 98.125 100.031 92.375 100.031C87.875 100.031 85.625 100.312 85.625 100.875V115.406C85.625 119.469 85.9062 122.312 86.4688 123.938C86.6562 124.562 88.7812 124.875 92.8438 124.875H97.3438C103.094 124.875 107.031 124.344 109.156 123.281C110.094 122.781 111.125 121.688 112.25 120C113.438 118.25 114.375 116.188 115.062 113.812C115.188 113.438 115.625 113.25 116.375 113.25C117.562 113.25 118.344 113.438 118.719 113.812C118.531 114.312 118.219 115.094 117.781 116.156C117.406 117.156 117.031 118.188 116.656 119.25C116.281 120.312 115.969 121.219 115.719 121.969C115.344 123.094 114.938 124.375 114.5 125.812C114.062 127.25 113.781 128.438 113.656 129.375ZM176.094 129.469C175.094 129.469 174.062 128.75 173 127.312L136.625 75.75V115.781C136.625 120.031 136.844 122.938 137.281 124.5C137.406 124.75 137.938 125.062 138.875 125.438C139.875 125.75 140.938 126.031 142.062 126.281C143.188 126.469 143.938 126.562 144.312 126.562C144.5 126.562 144.594 126.938 144.594 127.688C144.656 128.438 144.625 128.969 144.5 129.281C141.375 129.156 138.906 129.062 137.094 129C135.344 128.875 134.219 128.812 133.719 128.812L122.938 129.281C122.75 129.094 122.656 128.625 122.656 127.875C122.656 127 122.75 126.562 122.938 126.562C123.562 126.562 124.438 126.469 125.562 126.281C126.688 126.031 127.75 125.75 128.75 125.438C129.75 125.062 130.312 124.688 130.438 124.312C131.062 122.812 131.375 119.875 131.375 115.5V78.6562C131.375 75.4688 131.156 73.125 130.719 71.625C130.594 71.25 130.031 70.9375 129.031 70.6875C128.094 70.375 127.062 70.125 125.938 69.9375C124.812 69.75 123.938 69.6562 123.312 69.6562C123.062 69.6562 122.938 69.25 122.938 68.4375C122.938 67.6875 123.062 67.1875 123.312 66.9375C125.75 67 127.75 67.0625 129.312 67.125C130.938 67.125 132.125 67.125 132.875 67.125C134.5 67.125 135.938 67.125 137.188 67.125C138.438 67.0625 139.5 67 140.375 66.9375C141.562 69.0625 144.781 73.9688 150.031 81.6562C155.344 89.2812 162.719 99.6875 172.156 112.875C172.344 111.812 172.438 110.531 172.438 109.031V79.875C172.438 75.9375 172.219 73.1875 171.781 71.625C171.656 71.25 171.094 70.9062 170.094 70.5938C169.094 70.2812 168.031 70.0312 166.906 69.8438C165.781 69.5938 164.938 69.4688 164.375 69.4688C164.125 69.4688 164 69.0938 164 68.3438C164 67.6562 164.125 67.1875 164.375 66.9375C164.938 66.9375 165.875 67 167.188 67.125C168.5 67.1875 169.906 67.2812 171.406 67.4062C172.969 67.4688 174.312 67.5 175.438 67.5C177.062 67.5 179.125 67.4062 181.625 67.2188C184.062 67.0312 185.5 66.9375 185.938 66.9375C186.062 67.4375 186.125 67.9062 186.125 68.3438C186.125 69.0938 186 69.4688 185.75 69.4688C185.375 69.4688 184.594 69.5938 183.406 69.8438C182.219 70.0938 181.094 70.375 180.031 70.6875C179.031 71 178.469 71.3125 178.344 71.625C178.094 72.625 177.906 73.8438 177.781 75.2812C177.656 76.7188 177.594 78.4062 177.594 80.3438V115.969C177.594 119.844 177.688 124.219 177.875 129.094C177.625 129.344 177.031 129.469 176.094 129.469Z" fill="white"/>
</svg>
